<mxfile host="app.diagrams.net" modified="2020-07-23T11:25:23.071Z" agent="5.0 (X11; Linux x86_64) AppleWebKit/537.36 (KHTML, like Gecko) Chrome/83.0.4103.116 Safari/537.36" etag="zHo-v3ViTPHktFLfGohs" version="13.5.1" type="github">
  <diagram id="C5RBs43oDa-KdzZeNtuy" name="Page-1">
    <mxGraphModel dx="1355" dy="774" grid="0" gridSize="10" guides="1" tooltips="1" connect="1" arrows="1" fold="1" page="1" pageScale="1" pageWidth="827" pageHeight="1169" background="#ffffff" math="0" shadow="0">
      <root>
        <mxCell id="WIyWlLk6GJQsqaUBKTNV-0" />
        <mxCell id="WIyWlLk6GJQsqaUBKTNV-1" parent="WIyWlLk6GJQsqaUBKTNV-0" />
        <mxCell id="rNV-MhIYkYrfjyeAV_7H-8" value="" style="edgeStyle=orthogonalEdgeStyle;rounded=0;orthogonalLoop=1;jettySize=auto;html=1;" edge="1" parent="WIyWlLk6GJQsqaUBKTNV-1" source="rNV-MhIYkYrfjyeAV_7H-6" target="rNV-MhIYkYrfjyeAV_7H-7">
          <mxGeometry relative="1" as="geometry" />
        </mxCell>
        <mxCell id="rNV-MhIYkYrfjyeAV_7H-13" value="Redirects" style="edgeLabel;html=1;align=center;verticalAlign=middle;resizable=0;points=[];" vertex="1" connectable="0" parent="rNV-MhIYkYrfjyeAV_7H-8">
          <mxGeometry x="-0.913" y="1" relative="1" as="geometry">
            <mxPoint x="-1" y="10" as="offset" />
          </mxGeometry>
        </mxCell>
        <mxCell id="rNV-MhIYkYrfjyeAV_7H-6" value="Welcome page" style="rounded=1;whiteSpace=wrap;html=1;" vertex="1" parent="WIyWlLk6GJQsqaUBKTNV-1">
          <mxGeometry x="340" y="50" width="120" height="60" as="geometry" />
        </mxCell>
        <mxCell id="rNV-MhIYkYrfjyeAV_7H-12" value="" style="edgeStyle=orthogonalEdgeStyle;rounded=0;orthogonalLoop=1;jettySize=auto;html=1;" edge="1" parent="WIyWlLk6GJQsqaUBKTNV-1" source="rNV-MhIYkYrfjyeAV_7H-7">
          <mxGeometry relative="1" as="geometry">
            <mxPoint x="100" y="460" as="targetPoint" />
            <Array as="points">
              <mxPoint x="280" y="330" />
              <mxPoint x="230" y="330" />
              <mxPoint x="230" y="410" />
            </Array>
          </mxGeometry>
        </mxCell>
        <mxCell id="rNV-MhIYkYrfjyeAV_7H-14" value="If Sign in credentials are correct" style="edgeLabel;html=1;align=center;verticalAlign=middle;resizable=0;points=[];" vertex="1" connectable="0" parent="rNV-MhIYkYrfjyeAV_7H-12">
          <mxGeometry x="-0.2" y="-12" relative="1" as="geometry">
            <mxPoint x="10" y="-12" as="offset" />
          </mxGeometry>
        </mxCell>
        <mxCell id="rNV-MhIYkYrfjyeAV_7H-37" value="Validates credentials with passportjs&lt;br&gt;" style="edgeLabel;html=1;align=center;verticalAlign=middle;resizable=0;points=[];" vertex="1" connectable="0" parent="rNV-MhIYkYrfjyeAV_7H-12">
          <mxGeometry x="-0.8998" y="-3" relative="1" as="geometry">
            <mxPoint as="offset" />
          </mxGeometry>
        </mxCell>
        <mxCell id="rNV-MhIYkYrfjyeAV_7H-16" value="" style="edgeStyle=orthogonalEdgeStyle;rounded=0;orthogonalLoop=1;jettySize=auto;html=1;" edge="1" parent="WIyWlLk6GJQsqaUBKTNV-1" target="rNV-MhIYkYrfjyeAV_7H-15">
          <mxGeometry relative="1" as="geometry">
            <mxPoint x="290" y="320" as="sourcePoint" />
            <Array as="points">
              <mxPoint x="280" y="320" />
              <mxPoint x="280" y="330" />
              <mxPoint x="380" y="330" />
            </Array>
          </mxGeometry>
        </mxCell>
        <mxCell id="rNV-MhIYkYrfjyeAV_7H-17" value="If Sign in credentials are incorrect" style="edgeLabel;html=1;align=center;verticalAlign=middle;resizable=0;points=[];" vertex="1" connectable="0" parent="rNV-MhIYkYrfjyeAV_7H-16">
          <mxGeometry x="-0.6095" relative="1" as="geometry">
            <mxPoint x="61" y="70" as="offset" />
          </mxGeometry>
        </mxCell>
        <mxCell id="rNV-MhIYkYrfjyeAV_7H-7" value="Sign In" style="ellipse;whiteSpace=wrap;html=1;rounded=1;" vertex="1" parent="WIyWlLk6GJQsqaUBKTNV-1">
          <mxGeometry x="230" y="190" width="120" height="80" as="geometry" />
        </mxCell>
        <mxCell id="rNV-MhIYkYrfjyeAV_7H-10" value="Sign Up" style="ellipse;whiteSpace=wrap;html=1;" vertex="1" parent="WIyWlLk6GJQsqaUBKTNV-1">
          <mxGeometry x="450" y="200" width="120" height="80" as="geometry" />
        </mxCell>
        <mxCell id="rNV-MhIYkYrfjyeAV_7H-15" value="Redirects to LogIn with an alert message of what went wrong" style="whiteSpace=wrap;html=1;rounded=1;" vertex="1" parent="WIyWlLk6GJQsqaUBKTNV-1">
          <mxGeometry x="310" y="465" width="120" height="60" as="geometry" />
        </mxCell>
        <mxCell id="rNV-MhIYkYrfjyeAV_7H-23" value="" style="endArrow=none;html=1;" edge="1" parent="WIyWlLk6GJQsqaUBKTNV-1">
          <mxGeometry width="50" height="50" relative="1" as="geometry">
            <mxPoint x="400" y="150" as="sourcePoint" />
            <mxPoint x="510" y="150" as="targetPoint" />
            <Array as="points" />
          </mxGeometry>
        </mxCell>
        <mxCell id="rNV-MhIYkYrfjyeAV_7H-25" value="Redirects to Dashboard" style="rounded=1;whiteSpace=wrap;html=1;" vertex="1" parent="WIyWlLk6GJQsqaUBKTNV-1">
          <mxGeometry x="40" y="460" width="120" height="60" as="geometry" />
        </mxCell>
        <mxCell id="rNV-MhIYkYrfjyeAV_7H-26" value="" style="endArrow=classic;html=1;exitX=0.5;exitY=1;exitDx=0;exitDy=0;" edge="1" parent="WIyWlLk6GJQsqaUBKTNV-1" source="rNV-MhIYkYrfjyeAV_7H-10">
          <mxGeometry width="50" height="50" relative="1" as="geometry">
            <mxPoint x="540" y="320" as="sourcePoint" />
            <mxPoint x="560" y="390" as="targetPoint" />
          </mxGeometry>
        </mxCell>
        <mxCell id="rNV-MhIYkYrfjyeAV_7H-27" value="Successful registration" style="edgeLabel;html=1;align=center;verticalAlign=middle;resizable=0;points=[];" vertex="1" connectable="0" parent="rNV-MhIYkYrfjyeAV_7H-26">
          <mxGeometry x="-0.2607" y="3" relative="1" as="geometry">
            <mxPoint as="offset" />
          </mxGeometry>
        </mxCell>
        <mxCell id="rNV-MhIYkYrfjyeAV_7H-28" value="Redirects to Login" style="rounded=1;whiteSpace=wrap;html=1;" vertex="1" parent="WIyWlLk6GJQsqaUBKTNV-1">
          <mxGeometry x="510" y="390" width="120" height="60" as="geometry" />
        </mxCell>
        <mxCell id="rNV-MhIYkYrfjyeAV_7H-29" value="Redirects you to Dashboard" style="rounded=1;whiteSpace=wrap;html=1;" vertex="1" parent="WIyWlLk6GJQsqaUBKTNV-1">
          <mxGeometry x="510" y="525" width="120" height="60" as="geometry" />
        </mxCell>
        <mxCell id="rNV-MhIYkYrfjyeAV_7H-30" value="" style="endArrow=classic;html=1;exitX=0.5;exitY=1;exitDx=0;exitDy=0;" edge="1" parent="WIyWlLk6GJQsqaUBKTNV-1" source="rNV-MhIYkYrfjyeAV_7H-28">
          <mxGeometry width="50" height="50" relative="1" as="geometry">
            <mxPoint x="560" y="460" as="sourcePoint" />
            <mxPoint x="570" y="520" as="targetPoint" />
          </mxGeometry>
        </mxCell>
        <mxCell id="rNV-MhIYkYrfjyeAV_7H-31" value="Correct credentials" style="edgeLabel;html=1;align=center;verticalAlign=middle;resizable=0;points=[];" vertex="1" connectable="0" parent="rNV-MhIYkYrfjyeAV_7H-30">
          <mxGeometry x="-0.2857" y="-1" relative="1" as="geometry">
            <mxPoint as="offset" />
          </mxGeometry>
        </mxCell>
        <mxCell id="rNV-MhIYkYrfjyeAV_7H-32" value="" style="endArrow=classic;html=1;entryX=0.5;entryY=0;entryDx=0;entryDy=0;" edge="1" parent="WIyWlLk6GJQsqaUBKTNV-1" target="rNV-MhIYkYrfjyeAV_7H-10">
          <mxGeometry width="50" height="50" relative="1" as="geometry">
            <mxPoint x="510" y="150" as="sourcePoint" />
            <mxPoint x="540" y="150" as="targetPoint" />
          </mxGeometry>
        </mxCell>
        <mxCell id="rNV-MhIYkYrfjyeAV_7H-34" value="" style="endArrow=classic;html=1;exitX=1;exitY=0.5;exitDx=0;exitDy=0;" edge="1" parent="WIyWlLk6GJQsqaUBKTNV-1" source="rNV-MhIYkYrfjyeAV_7H-10">
          <mxGeometry width="50" height="50" relative="1" as="geometry">
            <mxPoint x="580" y="239.99999999999997" as="sourcePoint" />
            <mxPoint x="716" y="322" as="targetPoint" />
          </mxGeometry>
        </mxCell>
        <mxCell id="rNV-MhIYkYrfjyeAV_7H-35" value="Unsuccessful registrationt" style="edgeLabel;html=1;align=center;verticalAlign=middle;resizable=0;points=[];" vertex="1" connectable="0" parent="rNV-MhIYkYrfjyeAV_7H-34">
          <mxGeometry x="-0.2683" y="4" relative="1" as="geometry">
            <mxPoint as="offset" />
          </mxGeometry>
        </mxCell>
        <mxCell id="rNV-MhIYkYrfjyeAV_7H-36" value="Redirects to SignUp with an alert message of what went wrong" style="rounded=1;whiteSpace=wrap;html=1;" vertex="1" parent="WIyWlLk6GJQsqaUBKTNV-1">
          <mxGeometry x="687" y="328" width="120" height="60" as="geometry" />
        </mxCell>
      </root>
    </mxGraphModel>
  </diagram>
</mxfile>
